<svg xmlns="http://www.w3.org/2000/svg" viewBox="0 0 1000 200"><defs><style>.minerva-base-style{}</style></defs><g transform="translate(0 0) scale(0.9523809523809523) translate(0 0)" style="fill: #006c66;"><title>minerva</title><path d="M105,0A105,105,0,1,0,210,105,105.1,105.1,0,0,0,105,0Zm0,207.1A102.1,102.1,0,1,1,207.1,105,102.2,102.2,0,0,1,105,207.1Z"/><path class="minerva-base-style" d="M166.6,97c-1.4-3.1-.5-5.1-.9-7.3s-2.7-7-4.3-10.8c-.7-1.7,3.8-1.3.4-7.6,0-.2,4.7-2,0-5.5a26.4,26.4,0,0,1-6-6.7,1,1,0,0,1,0-1.3c2.7-2.4,2.8-5.8-.1-7.5s-4.5,0-6.7,1.4c-.7.5-1.1.8-1.9.5L145.3,51c2.7-2.6,3.3-5.2,3.1-5.6s-4.6-1.3-10.2,1l-.4-.3c2.3-3.9,1-6.7.9-6.9h-.1A81,81,0,0,1,151,25.9h.1c.2-.3.3-.6-.2-.9l-1-.6A92.4,92.4,0,0,0,12.7,105c0,29.5,15,57.9,39.4,75.6a13.5,13.5,0,0,0,2.8,1.6A1.1,1.1,0,0,0,56,182l.3-.5a1,1,0,0,0,.3-.8c0-.7-.9-1.3-2.1-3a27.7,27.7,0,0,1-4.7-15.1,22.1,22.1,0,0,1,4.5-13.7c3.7,3.9,11.7,10.9,11.5,17.4s-6.9,6.8-5.4,12.2c.9,3.4,3.4,2,3.9,4.6.7,4.4,6.7,7.3,9.3,6.9.7-.1,1.2.4,2.4,1.7s6.2,1.6,8.2,1.2,4.1,1.4,8,.9,6.1-.9,8.2-.9,22.5-.3,36,1.8c2.4.4,3.1-.7,2.1-2.5-4.9-8.6-5.6-15.8-2.8-25,5,.4,12.2,1.7,21.6-4a11,11,0,0,0,5.1-9.5c-.1-2.1-1-4.7-.5-6.7s1.3-2.7,2.1-3.2c3.6-2.6,1-4.6.4-4.8a3.4,3.4,0,0,0,1.1-4.6c-.7-.7-2.7-6.2-.4-7.3s5.3-1.8,8.1-3.1a4.5,4.5,0,0,0,2.4-6C174.2,114.4,166.8,97.4,166.6,97ZM64.7,179.1c-.7.2-2.9.3-2.4-2.7s2.3-2.6,3.3-1.6S64.9,177.6,64.7,179.1Zm87-125.9c1.2-.8,2.5-1.1,3.3-.4,2.6,2.6-2.9,4.1-1.8,6.1a30.7,30.7,0,0,0,7.5,8.4c1.2,1,1.4,3.1-3.3,4.1s-23.6,5.9-33.6,16.5c-12.5,13.2-20.4,30.3-21.5,28s-3.6-2.8-3.2-3.5C117,81.6,145.1,57.3,151.7,53.2Zm8.2,21.7c-1,2.9-9.1,5.5-8.7,3.5s0-2.2.6-2.3,3.5-1.1,7.5-2.1C159.7,73.9,160.2,74.1,159.9,74.9Zm-20.6,5.3c-.2-1.2,8.5-4.1,8.8-3.3s-1.8,6-4.7,7-4.7.9-4.6.4A11,11,0,0,0,139.3,80.2ZM119,125.8c-4,2.5-6.2-2.2-6.8-3.1a3.7,3.7,0,0,1-.5-3.1c.3-1.4.5-3.3-.4-9.3-.4-2.7,5-9.2,6.3-10.4s3.1.6,3.2,2.6c.3,3.6-1.8,5.6-3.9,7.2s-3.1,4.4-2.6,5.1a1.5,1.5,0,0,0,1.9-.9c1.5-3.3,6-4.9,6.7-6.7s.3-4.4.2-5.6.9-1.2,1.6-1.1,1.4,1.4,1.8,2.7c2.9,7.5-4.3,12-5.5,13.8S122.1,123.9,119,125.8Zm6.1-29.1c-2.2,1.5-5.3-.5-4.7-1.4a43.7,43.7,0,0,1,11.5-11c3.4-2.1,3.8-2.3,4-1.1a10.6,10.6,0,0,1-2.6,7.5c-2.3,2.5-4.6,2.3-5.8,2.6S126.7,95.6,125.1,96.7Zm-19.3,25.6c-1-.2-1.4-2.1-1.2-2.9s3.1-5.2,4-6.4a.5.5,0,0,1,.8.3C110,117.4,109.4,123.1,105.8,122.3ZM138,48.2a17.7,17.7,0,0,1,7.5-1.6c.8.1-1.9,4.8-6.6,6.8s-8.5,2.5-8.9,2.3S134.1,49.9,138,48.2ZM54.7,126.5c-1.5-1.7-2.8-2.6-2.9-2.5a22.4,22.4,0,0,0-3.6,8.9A65.4,65.4,0,0,1,40.7,105C39.3,69.6,69,41.1,105.2,41.2a56.8,56.8,0,0,1,22.4,4.6,31.3,31.3,0,0,0-3.7,6.6c0-1.9-.5-3.4-.4-4.6s-5.1.9-9.7,8.3a19.9,19.9,0,0,0-2.2,5.3c-.1-2.8-.7-4.9-.9-4.9a16.1,16.1,0,0,0-8.5,8.8,22.4,22.4,0,0,0-1.1,3.4c-.2-1.9-.7-3.2-.9-3.2s-5.9,2.3-8.6,8.9A15.4,15.4,0,0,0,90.5,79c-.5-2.3-1.4-3.7-1.7-3.4-1.9,2.4-5.7,3.5-7.6,9.6a13.2,13.2,0,0,0-.7,4.2c-.8-2-2-3.2-2.3-3.2s-6.1,5.5-7,10.9a15.8,15.8,0,0,0,.2,5.8c-1.1-1.8-2.5-3-3.1-4.8-.9.5-5.7,5-5.8,10.7a19.7,19.7,0,0,0,.7,6.1c-1.6-2.9-3.8-4.2-4.1-4.1s-4,4.1-4.8,11.1A11.8,11.8,0,0,0,54.7,126.5Zm74.1-79.7c2.8-3.4,7.6-6.1,8.2-5.8s-.8,5.6-3.9,8.6-8.1,6.2-8.6,6.1S126.2,49.8,128.8,46.8Zm-9.3,13a21,21,0,0,0-5.6,6.4c-.5.9-1.9-5,1.7-10.6,2.2-3.5,6.6-6.6,6.5-6.2S124.2,56,119.5,59.8Zm-10.1,7.5c-3.4,5.1-3.6,3.3-7.3,8.3-.2.2-.2-6.5,1.1-9.4,2.1-4.7,5.7-7.4,6.2-7.5S111.3,64.5,109.4,67.3ZM98.3,77.4c-1.7,3-3.3,2.3-6.2,6.7-.3.4-1.1-3.6.7-9.1a12.6,12.6,0,0,1,5.9-6.9C99.3,68,100.4,73.8,98.3,77.4ZM88,88.1c-1.8,3.9-2.9,4-5,6.4-.3.4-1.8-3.7-.4-8.8s4-5.6,5.3-7S89.9,84,88,88.1Zm-8.4,6.6a10.3,10.3,0,0,1-.4,3c-1.3,4.3-3.9,6.2-5.3,8.1a15.7,15.7,0,0,1-1.6-5.8,15.2,15.2,0,0,1,5.2-11.2C78.3,88.8,79.6,92,79.6,94.7Zm-8.5,12.8A14.9,14.9,0,0,1,66,118.3a17.7,17.7,0,0,1-2.2-7.6c-.2-6.3,2.4-8.5,3.6-9.7C67.9,102.8,71.1,104.2,71.1,107.5ZM59,113.8c1.8.9,3.9,3.4,4.1,8.2s-3.2,8.7-4.6,9.4c-.9-3.7-2.6-4.4-2.6-8A18,18,0,0,1,59,113.8Zm7.3,12.5c4.6-2,9.6-1.7,9.8-1.5s-1.5,5.9-5.9,8.2-9.5,2.7-10,2.1S61.7,128.3,66.3,126.3Zm-.4-3.4c.3-1.5,3-6.5,7.1-8.3h0a18.4,18.4,0,0,1,9.4-1.5c.5.2-1.7,5.6-5.8,7.6S70.1,121.6,65.9,122.9Zm6.9-11.8c.2-.4,3.5-6.4,7.4-8.2a17.5,17.5,0,0,1,8.9-1.4c.3.1-1.8,5.4-6.2,7.6S72.6,111.6,72.8,111.1Zm8.9-11.9c-.3-.2,4.4-6.4,8.4-8.3a15.6,15.6,0,0,1,8.4-1c.3.3-1.9,5.5-6.5,7.5A24.2,24.2,0,0,1,81.7,99.2ZM92.4,87.4c-.2-.2,3.4-6.3,7.4-7.9s7.7-.1,8.9,0-1.3,4.5-6.6,6.4S93.1,87.7,92.4,87.4Zm12-11.4c.1-.3,4.1-5.9,8.1-7.3a16.4,16.4,0,0,1,9.2-.2c.5.2-2.8,5-7.7,6.5S104.3,76.3,104.4,76Zm12.1-9.9c-.5-.3,4.3-5.7,8.2-7.2a18,18,0,0,1,8.3-1c.3.2-2.5,4.9-7.1,6.7S117.1,66.5,116.5,66.1ZM50.2,175.3C28.6,158.1,15.6,132.1,15.6,105A89.3,89.3,0,0,1,146.4,25.8a.4.4,0,0,1,.1.7,97.3,97.3,0,0,0-10.2,11.4,73.1,73.1,0,0,0-31.3-7A74.3,74.3,0,0,0,30.9,105a72.1,72.1,0,0,0,17.9,48.2,23.1,23.1,0,0,0-1.9,9.4A25.6,25.6,0,0,0,50.2,175.3Zm.2-24.8h-.1A69.2,69.2,0,0,1,33.9,105,71.2,71.2,0,0,1,105,33.9a70.1,70.1,0,0,1,29.6,6.4,22.6,22.6,0,0,0-4.1,2.6A63.1,63.1,0,0,0,105,37.8,67.3,67.3,0,0,0,37.8,105c0,16.1,5,30.2,14.8,42C52.1,147.9,51.3,149.1,50.4,150.5Zm3.5-5.6c-1.3-1.2-4.1-4.3-4.4-8.3V136c0-4.3,1.9-8.6,2.4-9s5.3,3.3,5.4,8.7A14.4,14.4,0,0,1,53.9,144.9Zm8-7.2c3.9-1.8,9.6-1.4,9.3-1.1s-1.8,5.8-6.2,8a12.1,12.1,0,0,1-8.7,1.3C58.6,143.3,58.1,139.5,61.9,137.7Zm5.2,46.5c-.6-2.7-.4-6.3.5-7.3s4.9-1.2,5-.1-1.1,5.4.3,10.2C72.6,187.7,68.3,187.4,67.1,184.2Zm.3-11.1c-.3-2,1.6-3.9,1.6-8.2s-6.6-12.6-11.1-17.3a19.5,19.5,0,0,0,7.9-1.9c6.6-3.1,7.9-10.1,8.1-10.4a11,11,0,0,0-3.8-.4l.8-.4c6.4-3.5,8.1-11,7.8-11.1a17,17,0,0,0-4-.3l2-.7c6.8-2.7,8.7-10.3,8.5-10.6a16.1,16.1,0,0,0-3.5-.4l1.9-.8c6.2-3.1,8.4-10.1,8.1-10.3a10.5,10.5,0,0,0-3.3-.4,23.7,23.7,0,0,0,4.5-1.5c6.7-2.9,8.9-9.3,8.6-9.6a10.9,10.9,0,0,0-3-.5,34.5,34.5,0,0,0,4.4-1.3c6.6-2.2,9.2-8.5,8.8-8.6l-3.7-.8a24.5,24.5,0,0,0,6.6-1.3c7.1-2.4,9.6-6.7,9.8-8.6a6,6,0,0,0-2.3-.8,29.3,29.3,0,0,0,4.7-1.2c6.6-2.7,9.4-9.3,9.6-9.8a29.3,29.3,0,0,0,3.9-1.6l1.9-.9,1.6,1.1c1,.6,1.4.8.9,1.2C122,75,105,99.5,97.6,111.3c-.2.4-.6.3-1.3.3-7.9-.6-12.4,8.9-8.9,17.8-.4,1.8-4.2,5.3-4.5,5.5s-1,1.4.3,1.3,4.2-3.2,5.4-4.5c.4.6,2.2,2,1.3,2.8A63.6,63.6,0,0,1,76,145c-2.6,1.2,4.2,2.1,15.7-8.3.7-.6,1.5,2.4,2.5,3.7-2,6.5,2.9,19.1,2.1,23a2.8,2.8,0,0,1-2.8,2.7c-11.4.3-12.5-.3-18.3,1.4-2.7.8-2,2.6-.1,2.1s4.6-1.5,16.9-.7c3.1.1,6.5-.6,6.5-5.7s-3.6-18.4-2.4-20.3a6.9,6.9,0,0,0,3.5,1.4c-.2,4.5,7,19,3.8,27-1.2,3-6.4,2.7-15.4,1.8C72.7,171.6,67.7,174.9,67.4,173.1Zm35.1,9.9c-5.9,2-8.3-4.9-7.3-6.4s4.4,1,7.3-.9S106,181.8,102.5,183Zm-27,4.3c-.8-3.7-1.1-10,.4-11.5s4.9-.9,4.8.2c-.3,4.3-2.1,9.2,1.2,14.1C83.2,192,76.7,192.3,75.5,187.3Zm11.4,4.2c-1.6-.4-6-7.4-2.4-15.8.3-.8,5.8-.3,6.8,0s-.8,6.8,6.8,9.8C98.8,185.8,98,194.3,86.9,191.5Zm47.2-23.3c-2.5,8.8-3.8,12.3,0,21.9.5,1.3.9,2.3-.2,2.1-7.7-1.4-9.4-2.6-33.7-.6-1.7.2.6-3.4.3-5.8,2.2-.3,5.8-1.3,6.5-4.9s-2.1-7.6-1.8-8.2c3.5-6.7-.2-14.1-3.1-26.6-.3-1.2.4-1.7.9-1.1,15.6,16.9,25.5,20.2,30.9,21.8C134.4,167,134.3,167.6,134.1,168.2ZM174,122.1c-3.3,2.9-8.3,3.1-10.3,4.9s-1.5,2.5-.4,5.2,1.1,1.7-1.1,2.3-4.1,5.8-8.8,4.9c-1.8-.3-.5.8.2.9,2.6.3,3.7-.5,4.6-1.4s2.2-2.4,3.6-2.9,2.9-.5,3,.6-1.9,2.1-2.7,2.5c1,.5,3.9,1.9,1.4,3.6s-4.6-.5-4.9-.7-1.7-.2-1.3.3,5.2,1.3,4.5,2.2c-3.5,4.7-.6,7.5-1.7,12.3s-7.7,7.5-12.8,8.4c-17.4,3.1-34.3-11.6-44.2-22.8.9-2.1.8-4.8-.1-3.8s-.7,2.4-2.8,2.9c-3.9,1-5.7-5.9-6.9-7.1-4.8-4.7-6.7-11.4-3.9-17.3s9-4.7,11.4-1.1,1.7,7,3.4,8.3,4.8.2,5.4,0,1.7,4.3,8,4.1,5.9-10.7,6.9-11.6c8.6-8.4,4.2-15.9,2.6-17.6s1-3.6,1.5-3.7a13,13,0,0,0,9.4-7.7s8.4-.2,11.4-6.2c.8-1.6,3.3,1.5,8.9-2.9a.8.8,0,0,1,1.4.3c3.7,8.9,5.2,11.3,4.9,15.8s8.7,21.5,9.4,23.1S174.8,121.3,174,122.1Z"/><path class="minerva-base-style" d="M153.8,90c-4.9.2-10.6,6.2-12.4,7s-1.3,1.5-.2,1.1,5.9-4.7,10.7-6.4,3.6,1.8,5,1.6S156.6,89.9,153.8,90Z"/><path class="minerva-base-style" d="M154.9,94.8c-.4.1.4,2.2-1.7,2.3-4.6.3-8.3,4.7-11.1,6a12.9,12.9,0,0,1-3.8,1.4.3.3,0,0,0,.1.6c11.7,1.6,16.2,1.1,16.3.7s-.6-1.2-.4-1.7a11.3,11.3,0,0,0,.1-5.5c-.2-.8,1.8-.3,1.8-1.3S155.6,94.7,154.9,94.8Zm-1.8,9.3c-.2.9-5.5.5-8.3.2-.7,0-1.8-.1.3-1.4s4.1-2.8,7.2-3.4a.8.8,0,0,1,.8.6A10.6,10.6,0,0,1,153.1,104.1Z"/><path class="minerva-base-style" d="M168.4,120.8c-.9,0-4.5,1.6-5.9,2.5s-4.4,2.7-4.2-.8c.1-1.3.9-4.4.9-5.3s-1-.7-1.1,0a36.9,36.9,0,0,1-.7,5.3c-.4,1.8,1.2,4,3.6,2.7s4.8-2.9,7.3-3.4C168.9,121.7,169,120.8,168.4,120.8Z"/><path class="minerva-base-style" d="M100.5,133.6c-.7-.3-.5,1.2-1.4,1s-.2-1.3-1.8-3-2.8-1.2-4.3-3.6-.3-12,3.1-10.8,1.6,5,1,8,2.5,2.8,2.8,2.1-1.1-.9-1.4-1.9,3.5-7.6-1.8-9.4c-3.8-1.3-6.4,3.6-5.9,8.9a8,8,0,0,0,5.1,7.1c2.3.8.6,4,3.7,4C101,136,101.3,133.9,100.5,133.6Z"/><path class="minerva-base-style" d="M131.3,33.4c.2.1.3,0,.5-.1l6.5-8.3a.5.5,0,0,0-.2-.6L137,24a.4.4,0,0,0-.5.1L130,32.4c-.2.2-.1.5.2.6Z"/><path class="minerva-base-style" d="M119.2,30l1.1.3a.5.5,0,0,0,.5-.3l3.8-9.4a.4.4,0,0,0-.3-.6l-1.2-.2h-.3l-3.9,9.6A.4.4,0,0,0,119.2,30Z"/><path class="minerva-base-style" d="M105.8,28.7h1.1c.2.1.4-.1.4-.3l1-10a.5.5,0,0,0-.4-.5h-1.1c-.3,0-.4.2-.5.4l-.9,10A.4.4,0,0,0,105.8,28.7Z"/><path class="minerva-base-style" d="M92.8,29.7l1.1-.2c.2,0,.4-.2.3-.4l-1.9-9.9c0-.2-.2-.4-.4-.3H90.7c-.2.1-.4.3-.3.5l1.9,9.9C92.3,29.6,92.5,29.7,92.8,29.7Z"/><path class="minerva-base-style" d="M79.4,32.8l.5.2,1.1-.4a.4.4,0,0,0,.3-.6l-4.6-9a.4.4,0,0,0-.5-.2l-1,.3a.4.4,0,0,0-.3.6Z"/><path class="minerva-base-style" d="M67,38.5c.1.2.3.2.5.1l1-.6a.4.4,0,0,0,.1-.6l-6.7-7.7c-.2-.2-.4-.2-.5-.1l-1,.6c-.3.1-.3.4-.1.6Z"/><path class="minerva-base-style" d="M55.4,46.7c.2.1.4.1.5-.1l.9-.7a.5.5,0,0,0,0-.7l-8.5-5.9h-.5l-.9.8a.5.5,0,0,0,0,.7Z"/><path class="minerva-base-style" d="M45.4,57.1a.4.4,0,0,0,.4-.2l.8-.9c.2-.2.1-.5-.2-.6l-9.8-3.8c-.2-.1-.4-.1-.5.1l-.7.9a.4.4,0,0,0,.2.7Z"/><path class="minerva-base-style" d="M26.8,67.8l10.5,1.5c.2,0,.4-.1.4-.3l.6-1a.4.4,0,0,0-.3-.6L27.5,65.9l-.5.2a5.4,5.4,0,0,1-.5,1.1A.4.4,0,0,0,26.8,67.8Z"/><path class="minerva-base-style" d="M21.1,83.7l10.7-1a.3.3,0,0,0,.3-.3,7.6,7.6,0,0,0,.4-1.1.4.4,0,0,0-.4-.6l-10.8,1-.4.3-.3,1.2C20.6,83.5,20.8,83.8,21.1,83.7Z"/><path class="minerva-base-style" d="M29.2,96.5c0-.4.1-.9.1-1.3s-.2-.5-.5-.4L18.4,98.4c-.2.1-.3.2-.3.4s-.1.8-.1,1.2a.4.4,0,0,0,.6.4l10.3-3.6A.3.3,0,0,0,29.2,96.5Z"/><path class="minerva-base-style" d="M28.9,110.8v-1.3a.5.5,0,0,0-.7-.4l-9.4,6.3c-.2,0-.2.2-.2.4s.1.8.1,1.2a.5.5,0,0,0,.7.3l9.4-6.2C28.9,111,29,110.9,28.9,110.8Z"/><path class="minerva-base-style" d="M31.3,125l-.3-1.3a.4.4,0,0,0-.7-.2L22.6,132c-.1.1-.2.3-.1.4s.3.8.4,1.2a.4.4,0,0,0,.7.2l7.6-8.4C31.3,125.3,31.3,125.2,31.3,125Z"/><path class="minerva-base-style" d="M35.2,137.7,29.8,148c-.1.1,0,.3,0,.4l.7,1.2a.4.4,0,0,0,.7-.1l5.4-10.2c0-.1.1-.2,0-.4l-.6-1.2A.5.5,0,0,0,35.2,137.7Z"/><path class="minerva-base-style" d="M42.9,149.3c-.2-.3-.7-.2-.7.1l-2.9,12c-.1.2,0,.3,0,.4l1,1a.4.4,0,0,0,.7-.1l2.8-11.9c.1-.1,0-.2,0-.3Z"/></g><g transform="translate(220 25.62506856563381)"><g transform="translate(0 67.863337068169)" style="fill: #006c66;"><path d="M3.766-42L15.141-42L25.969-11.538L36.766-42L48.188-42L48.188 0L39.453 0L39.453-11.476L40.328-31.302L28.938 0L22.953 0L11.594-31.271L12.469-11.476L12.469 0L3.766 0L3.766-42ZM88.531 0L85.594-8.969L70.344-8.969L67.453 0L58.203 0L73.922-42L81.969-42L97.781 0L88.531 0ZM77.953-31.395L72.703-16L83.250-16L77.953-31.395ZM114.953-42L122.875-27.523L130.781-42L140.797-42L128.500-21.179L141.109 0L130.984 0L122.875-14.710L114.750 0L104.641 0L117.250-21.179L104.953-42L114.953-42ZM162.516-21L162.516-14.250L146.188-14.250L146.188-21L162.516-21ZM192.094-14.953L184.469-14.953L184.469 0L175.766 0L175.766-42L192.234-42Q196.984-42 200.594-40.283Q204.203-38.567 206.148-35.397Q208.094-32.227 208.094-28.175L208.094-28.175Q208.094-22.036 203.844-18.494Q199.594-14.953 192.094-14.953L192.094-14.953ZM184.469-34.969L184.469-22L192.234-22Q195.688-22 197.500-23.583Q199.313-25.166 199.313-28.117L199.313-28.117Q199.313-31.161 197.484-33.034Q195.656-34.908 192.438-34.969L192.438-34.969L184.469-34.969ZM229.469-42L229.469-6.984L247.938-6.984L247.938 0L220.766 0L220.766-42L229.469-42ZM285.531 0L282.594-8.969L267.344-8.969L264.453 0L255.203 0L270.922-42L278.969-42L294.781 0L285.531 0ZM274.953-31.395L269.703-16L280.250-16L274.953-31.395ZM339.094-42L339.094 0L330.391 0L313.469-27.632L313.469 0L304.766 0L304.766-42L313.469-42L330.422-14.306L330.422-42L339.094-42ZM377.203-13.641L385.906-13.641Q385.406-6.828 380.875-2.914Q376.344 1 368.922 1L368.922 1Q360.797 1 356.148-4.540Q351.500-10.079 351.500-19.764L351.500-19.764L351.500-22.379Q351.500-28.561 353.641-33.260Q355.781-37.960 359.766-40.480Q363.750-43 369.031-43L369.031-43Q376.344-43 380.805-39.086Q385.266-35.172 385.969-28.094L385.969-28.094L377.266-28.094Q376.953-32.188 374.992-34.023Q373.031-35.859 369.031-35.859L369.031-35.859Q364.688-35.859 362.523-32.675Q360.359-29.491 360.313-22.804L360.313-22.804L360.313-19.548Q360.313-12.558 362.383-9.326Q364.453-6.094 368.922-6.094L368.922-6.094Q372.953-6.094 374.938-7.938Q376.922-9.781 377.203-13.641L377.203-13.641ZM421.828 0L410.984-16.856L406.469-12.004L406.469 0L397.766 0L397.766-42L406.469-42L406.469-22.967L410.297-28.192L421.047-42L431.750-42L416.750-23.340L432.188 0L421.828 0ZM452.516-21L452.516-14.250L436.188-14.250L436.188-21L452.516-21ZM475.016-42L475.016 0L466.313 0L466.313-42L475.016-42ZM523.094-42L523.094 0L514.391 0L497.469-27.632L497.469 0L488.766 0L488.766-42L497.469-42L514.422-14.306L514.422-42L523.094-42ZM558.656-10.762L558.656-10.762Q558.656-13.270 556.914-14.619Q555.172-15.969 550.648-17.470Q546.125-18.971 543.500-20.414L543.500-20.414Q536.313-24.344 536.313-31.017L536.313-31.017Q536.313-34.488 538.234-37.215Q540.156-39.941 543.766-41.470Q547.375-43 551.875-43L551.875-43Q556.391-43 559.930-41.336Q563.469-39.671 565.430-36.644Q567.391-33.617 567.391-29.765L567.391-29.765L558.688-29.765Q558.688-32.745 556.859-34.404Q555.031-36.063 551.734-36.063L551.734-36.063Q548.531-36.063 546.766-34.672Q545-33.281 545-31.000L545-31.000Q545-28.866 547.070-27.426Q549.141-25.987 553.172-24.755L553.172-24.755Q560.594-22.497 563.992-19.157Q567.391-15.817 567.391-10.827L567.391-10.827Q567.391-5.301 563.242-2.150Q559.094 1 552.078 1L552.078 1Q547.203 1 543.203-0.807Q539.203-2.614 537.102-5.760Q535-8.906 535-13.059L535-13.059L543.734-13.059Q543.734-5.875 552.078-5.875L552.078-5.875Q555.172-5.875 556.914-7.161Q558.656-8.446 558.656-10.762ZM610.547-42L610.547-34.969L597.609-34.969L597.609 0L588.922 0L588.922-34.969L576.156-34.969L576.156-42L610.547-42ZM631.016-42L631.016 0L622.313 0L622.313-42L631.016-42ZM675.547-42L675.547-34.969L662.609-34.969L662.609 0L653.922 0L653.922-34.969L641.156-34.969L641.156-42L675.547-42ZM709.984-42L718.719-42L718.719-14.061Q718.719-7.104 714.383-3.052Q710.047 1 702.547 1L702.547 1Q695.141 1 690.797-2.934Q686.453-6.868 686.359-13.747L686.359-13.747L686.359-42L695.063-42L695.063-13.970Q695.063-9.804 697.047-7.894Q699.031-5.984 702.547-5.984L702.547-5.984Q709.875-5.984 709.984-13.750L709.984-13.750L709.984-42ZM763.547-42L763.547-34.969L750.609-34.969L750.609 0L741.922 0L741.922-34.969L729.156-34.969L729.156-42L763.547-42Z"/></g><g transform="translate(0 122.67582157521126)" style="fill: #006c66;"><path d="M22.766-19L22.766-15.328L8.453-15.328L8.453 0L3.953 0L3.953-34.094L25.078-34.094L25.078-30.391L8.453-30.391L8.453-19L22.766-19ZM51.438-34.094L55.953-34.094L55.953-10.906Q55.938-6.094 52.930-3.023Q49.922 0.047 44.766 0.422L44.766 0.422L43.578 0.469Q37.969 0.469 34.648-2.555Q31.328-5.578 31.281-10.859L31.281-10.859L31.281-34.094L35.734-34.094L35.734-11Q35.734-7.313 37.766-5.258Q39.797-3.203 43.578-3.203L43.578-3.203Q47.391-3.203 49.414-5.242Q51.438-7.281 51.438-10.984L51.438-10.984L51.438-34.094ZM36.359-39.563L36.359-39.563Q36.359-40.609 37.008-41.320Q37.656-42.031 38.922-42.031Q40.188-42.031 40.844-41.320Q41.500-40.609 41.500-39.555Q41.500-38.500 40.844-37.797Q40.188-37.094 38.922-37.094Q37.656-37.094 37.008-37.797Q36.359-38.500 36.359-39.563ZM46.438-39.539L46.438-39.539Q46.438-40.576 47.078-41.296Q47.719-42.016 48.984-42.016Q50.250-42.016 50.906-41.296Q51.563-40.576 51.563-39.531Q51.563-38.487 50.906-37.790Q50.250-37.094 48.984-37.094Q47.719-37.094 47.078-37.790Q46.438-38.487 46.438-39.539ZM84.859 0L77.469-13.328L69.453-13.328L69.453 0L64.938 0L64.938-34.094L76.219-34.094Q81.984-34.094 85.086-31.408Q88.188-28.723 88.188-23.607L88.188-23.607Q88.188-20.346 86.469-17.924Q84.750-15.502 81.672-14.303L81.672-14.303L89.688-0.273L89.688 0L84.859 0ZM69.453-30.391L69.453-17L76.359-17Q79.703-17 81.688-18.797Q83.672-20.595 83.672-23.606L83.672-23.606Q83.672-26.877 81.781-28.626Q79.891-30.374 76.344-30.391L76.344-30.391L69.453-30.391ZM136.125-17L136.125-4.478Q134.391-1.989 131.289-0.760Q128.188 0.469 124.063 0.469L124.063 0.469Q119.906 0.469 116.672-1.484Q113.438-3.438 111.672-7.047Q109.906-10.656 109.859-15.406L109.859-15.406L109.859-18.375Q109.859-26.078 113.453-30.320Q117.047-34.563 123.563-34.563L123.563-34.563Q128.891-34.563 132.148-31.836Q135.406-29.109 136.125-24.094L136.125-24.094L131.641-24.094Q130.375-30.859 123.578-30.859L123.578-30.859Q119.063-30.859 116.734-27.688Q114.406-24.516 114.375-18.500L114.375-18.500L114.375-15.719Q114.375-9.969 117-6.586Q119.625-3.203 124.094-3.203L124.094-3.203Q126.625-3.203 128.523-3.767Q130.422-4.332 131.656-5.679L131.656-5.679L131.656-13.359L123.766-13.359L123.766-17L136.125-17ZM164.234-19L164.234-15.328L149.453-15.328L149.453-3.672L166.609-3.672L166.609 0L144.953 0L144.953-34.094L166.375-34.094L166.375-30.391L149.453-30.391L149.453-19L164.234-19ZM200.188-18.094L200.188-15.953Q200.188-10.938 198.500-7.203Q196.813-3.469 193.719-1.500Q190.625 0.469 186.516 0.469L186.516 0.469Q182.484 0.469 179.367-1.508Q176.250-3.484 174.531-7.148Q172.813-10.813 172.766-15.641L172.766-15.641L172.766-18.094Q172.766-23.016 174.477-26.789Q176.188-30.563 179.313-32.563Q182.438-34.563 186.469-34.563L186.469-34.563Q190.563-34.563 193.688-32.586Q196.813-30.609 198.500-26.852Q200.188-23.094 200.188-18.094L200.188-18.094ZM195.703-15.625L195.703-18.141Q195.703-24.219 193.273-27.461Q190.844-30.703 186.469-30.703L186.469-30.703Q182.203-30.703 179.758-27.461Q177.313-24.219 177.234-18.453L177.234-18.453L177.234-15.953Q177.234-10.063 179.703-6.703Q182.172-3.344 186.516-3.344L186.516-3.344Q190.859-3.344 193.250-6.516Q195.641-9.688 195.703-15.625L195.703-15.625ZM231.031 0L227.781-9.297L213.500-9.297L210.297 0L205.656 0L218.672-34.094L222.609-34.094L235.656 0L231.031 0ZM220.641-28.547L214.859-13L226.453-13L220.641-28.547ZM268.156-34.094L268.156 0L263.641 0L246.469-26.266L246.469 0L241.953 0L241.953-34.094L246.469-34.094L263.688-7.703L263.688-34.094L268.156-34.094ZM300.516-34.094L300.516-30.391L289.563-30.391L289.563 0L285.078 0L285.078-30.391L274.141-30.391L274.141-34.094L300.516-34.094ZM334.156-34.094L334.156 0L329.641 0L329.641-15.328L312.453-15.328L312.453 0L307.953 0L307.953-34.094L312.453-34.094L312.453-19L329.641-19L329.641-34.094L334.156-34.094ZM363.859 0L356.469-13.328L348.453-13.328L348.453 0L343.938 0L343.938-34.094L355.219-34.094Q360.984-34.094 364.086-31.408Q367.188-28.723 367.188-23.607L367.188-23.607Q367.188-20.346 365.469-17.924Q363.750-15.502 360.672-14.303L360.672-14.303L368.688-0.273L368.688 0L363.859 0ZM348.453-30.391L348.453-17L355.359-17Q358.703-17 360.688-18.797Q362.672-20.595 362.672-23.606L362.672-23.606Q362.672-26.877 360.781-28.626Q358.891-30.374 355.344-30.391L355.344-30.391L348.453-30.391ZM402.188-18.094L402.188-15.953Q402.188-10.938 400.500-7.203Q398.813-3.469 395.719-1.500Q392.625 0.469 388.516 0.469L388.516 0.469Q384.484 0.469 381.367-1.508Q378.250-3.484 376.531-7.148Q374.813-10.813 374.766-15.641L374.766-15.641L374.766-18.094Q374.766-23.016 376.477-26.789Q378.188-30.563 381.313-32.563Q384.438-34.563 388.469-34.563L388.469-34.563Q392.563-34.563 395.688-32.586Q398.813-30.609 400.500-26.852Q402.188-23.094 402.188-18.094L402.188-18.094ZM397.703-15.625L397.703-18.141Q397.703-24.219 395.273-27.461Q392.844-30.703 388.469-30.703L388.469-30.703Q384.203-30.703 381.758-27.461Q379.313-24.219 379.234-18.453L379.234-18.453L379.234-15.953Q379.234-10.063 381.703-6.703Q384.172-3.344 388.516-3.344L388.516-3.344Q392.859-3.344 395.250-6.516Q397.641-9.688 397.703-15.625L397.703-15.625ZM422.484-13.328L414.453-13.328L414.453 0L409.953 0L409.953-34.094L422.531-34.094Q428.125-34.094 431.297-31.232Q434.469-28.371 434.469-23.664L434.469-23.664Q434.469-18.692 431.367-16.010Q428.266-13.328 422.484-13.328L422.484-13.328ZM414.453-30.391L414.453-17L422.531-17Q426.141-17 428.063-18.705Q429.984-20.410 429.984-23.617L429.984-23.617Q429.984-26.668 428.063-28.498Q426.141-30.328 422.781-30.391L422.781-30.391L414.453-30.391ZM469.188-18.094L469.188-15.953Q469.188-10.938 467.500-7.203Q465.813-3.469 462.719-1.500Q459.625 0.469 455.516 0.469L455.516 0.469Q451.484 0.469 448.367-1.508Q445.250-3.484 443.531-7.148Q441.813-10.813 441.766-15.641L441.766-15.641L441.766-18.094Q441.766-23.016 443.477-26.789Q445.188-30.563 448.313-32.563Q451.438-34.563 455.469-34.563L455.469-34.563Q459.563-34.563 462.688-32.586Q465.813-30.609 467.500-26.852Q469.188-23.094 469.188-18.094L469.188-18.094ZM464.703-15.625L464.703-18.141Q464.703-24.219 462.273-27.461Q459.844-30.703 455.469-30.703L455.469-30.703Q451.203-30.703 448.758-27.461Q446.313-24.219 446.234-18.453L446.234-18.453L446.234-15.953Q446.234-10.063 448.703-6.703Q451.172-3.344 455.516-3.344L455.516-3.344Q459.859-3.344 462.250-6.516Q464.641-9.688 464.703-15.625L464.703-15.625ZM481.469-34.094L481.469-3.672L497.641-3.672L497.641 0L476.953 0L476.953-34.094L481.469-34.094ZM530.188-18.094L530.188-15.953Q530.188-10.938 528.500-7.203Q526.813-3.469 523.719-1.500Q520.625 0.469 516.516 0.469L516.516 0.469Q512.484 0.469 509.367-1.508Q506.250-3.484 504.531-7.148Q502.813-10.813 502.766-15.641L502.766-15.641L502.766-18.094Q502.766-23.016 504.477-26.789Q506.188-30.563 509.313-32.563Q512.438-34.563 516.469-34.563L516.469-34.563Q520.563-34.563 523.688-32.586Q526.813-30.609 528.500-26.852Q530.188-23.094 530.188-18.094L530.188-18.094ZM525.703-15.625L525.703-18.141Q525.703-24.219 523.273-27.461Q520.844-30.703 516.469-30.703L516.469-30.703Q512.203-30.703 509.758-27.461Q507.313-24.219 507.234-18.453L507.234-18.453L507.234-15.953Q507.234-10.063 509.703-6.703Q512.172-3.344 516.516-3.344L516.516-3.344Q520.859-3.344 523.250-6.516Q525.641-9.688 525.703-15.625L525.703-15.625ZM564.125-17L564.125-4.478Q562.391-1.989 559.289-0.760Q556.188 0.469 552.063 0.469L552.063 0.469Q547.906 0.469 544.672-1.484Q541.438-3.438 539.672-7.047Q537.906-10.656 537.859-15.406L537.859-15.406L537.859-18.375Q537.859-26.078 541.453-30.320Q545.047-34.563 551.563-34.563L551.563-34.563Q556.891-34.563 560.148-31.836Q563.406-29.109 564.125-24.094L564.125-24.094L559.641-24.094Q558.375-30.859 551.578-30.859L551.578-30.859Q547.063-30.859 544.734-27.688Q542.406-24.516 542.375-18.500L542.375-18.500L542.375-15.719Q542.375-9.969 545-6.586Q547.625-3.203 552.094-3.203L552.094-3.203Q554.625-3.203 556.523-3.767Q558.422-4.332 559.656-5.679L559.656-5.679L559.656-13.359L551.766-13.359L551.766-17L564.125-17ZM577.781-34.094L577.781 0L573.281 0L573.281-34.094L577.781-34.094ZM607.234-19L607.234-15.328L592.453-15.328L592.453-3.672L609.609-3.672L609.609 0L587.953 0L587.953-34.094L609.375-34.094L609.375-30.391L592.453-30.391L592.453-19L607.234-19Z"/></g></g></svg>