<?xml version="1.0" encoding="UTF-8" standalone="no"?>
<!-- Created with Inkscape (http://www.inkscape.org/) -->

<svg
   version="1.1"
   id="svg2"
   xml:space="preserve"
   width="449"
   height="89.203064"
   viewBox="0 0 449 89.203064"
   sodipodi:docname="copan_lpjml_base.svg"
   inkscape:version="1.4 (86a8ad7, 2024-10-11)"
   inkscape:export-filename="copan_lpjml.png"
   inkscape:export-xdpi="300"
   inkscape:export-ydpi="300"
   xmlns:inkscape="http://www.inkscape.org/namespaces/inkscape"
   xmlns:sodipodi="http://sodipodi.sourceforge.net/DTD/sodipodi-0.dtd"
   xmlns="http://www.w3.org/2000/svg"
   xmlns:svg="http://www.w3.org/2000/svg"
   xmlns:rdf="http://www.w3.org/1999/02/22-rdf-syntax-ns#"
   xmlns:cc="http://creativecommons.org/ns#"
   xmlns:dc="http://purl.org/dc/elements/1.1/"><metadata
     id="metadata8"><rdf:RDF><cc:Work
         rdf:about=""><dc:format>image/svg+xml</dc:format><dc:type
           rdf:resource="http://purl.org/dc/dcmitype/StillImage" /></cc:Work></rdf:RDF></metadata><defs
     id="defs6"><linearGradient
       id="linearGradient45608"
       inkscape:swatch="solid"><stop
         style="stop-color:#000000;stop-opacity:1;"
         offset="0"
         id="stop45606" /></linearGradient><linearGradient
       id="linearGradient17802"
       inkscape:swatch="solid"><stop
         style="stop-color:#ce564f;stop-opacity:1;"
         offset="0"
         id="stop17800" /></linearGradient><linearGradient
       id="linearGradient253858"
       inkscape:swatch="solid"><stop
         style="stop-color:#9b9b9b;stop-opacity:1;"
         offset="0"
         id="stop253856" /></linearGradient></defs><sodipodi:namedview
     pagecolor="#ffffff"
     bordercolor="#666666"
     borderopacity="1"
     objecttolerance="10"
     gridtolerance="10"
     guidetolerance="10"
     inkscape:pageopacity="0"
     inkscape:pageshadow="2"
     inkscape:window-width="1536"
     inkscape:window-height="889"
     id="namedview4"
     showgrid="false"
     inkscape:zoom="1.4142136"
     inkscape:cx="187.3833"
     inkscape:cy="943.98755"
     inkscape:window-x="-8"
     inkscape:window-y="-8"
     inkscape:window-maximized="1"
     inkscape:current-layer="g10"
     inkscape:pagecheckerboard="0"
     showguides="true"
     inkscape:guide-bbox="true"
     inkscape:showpageshadow="2"
     inkscape:deskcolor="#d1d1d1"><sodipodi:guide
       position="-1443.8742,857.89792"
       orientation="1,0"
       id="guide71"
       inkscape:locked="false" /><sodipodi:guide
       position="-1039,773.60152"
       orientation="1,0"
       id="guide28"
       inkscape:locked="false" /><sodipodi:guide
       position="-862.63247,-100.58527"
       orientation="0,-1"
       id="guide214"
       inkscape:locked="false" /><inkscape:page
       x="0"
       y="0"
       width="449"
       height="89.203064"
       id="page2"
       margin="0"
       bleed="0" /></sodipodi:namedview><g
     id="g10"
     inkscape:groupmode="layer"
     inkscape:label="COREoverviewRealSpace_v4_rev1"
     transform="matrix(1.3333333,0,0,-1.3333333,-939,-30.931887)"><g
       transform="matrix(0.1,0,0,0.1,704.25001,-90.101236)"
       id="g12"><path
         id="path14-8"
         style="fill:#686c70;fill-opacity:1;fill-rule:nonzero;stroke:none"
         d="m 775.852,0.128906 c 0,-0.0624997 -0.051,-0.1210935 -0.129,-0.1210935 h -1.328 -0.235 -15.39 -0.247 -1.335 c -0.071,0 -0.118,0.0585938 -0.118,0.1210935 v 1.324224 0.25781 81.64846 0.2344 1.3281 c 0,0.0664 0.047,0.125 0.118,0.125 h 1.335 0.247 15.39 0.235 1.328 c 0.078,0 0.129,-0.0586 0.129,-0.125 V 83.5938 83.3594 1.71094 1.45313 0.128906" /><path
         id="path16-2"
         style="fill:#686c70;fill-opacity:1;fill-rule:nonzero;stroke:none"
         d="m 981.602,0.0195313 h -21.59 c -0.071,0 -0.157,0.0390625 -0.199,0.0976567 l -0.321,0.457031 c -0.027,0.058594 -0.09,0.148437 -0.137,0.207031 L 935.051,36.4922 c -0.031,0.0586 -0.071,0.2734 -0.071,0.207 V 1.69922 1.45313 0.136719 c 0,-0.058594 -0.058,-0.1171877 -0.117,-0.1171877 h -1.316 -0.246 -15.391 -0.254 -1.308 c -0.071,0 -0.125,0.0585937 -0.125,0.1171877 v 1.316411 0.24609 81.64848 0.2382 1.3164 c 0,0.0665 0.054,0.125 0.125,0.125 h 1.308 0.254 15.391 0.246 1.316 c 0.059,0 0.117,-0.0585 0.117,-0.125 V 83.5859 83.3477 50.4961 c 0,-0.0664 0.04,-0.918 0.071,-0.8672 l 22.691,34.6094 c 0.031,0.0586 0.09,0.1445 0.129,0.1953 l 0.32,0.4961 c 0.032,0.0508 0.129,0.0976 0.188,0.0976 h 0.598 0.234 17.769 0.239 2.793 c 0.054,0 0.086,-0.0468 0.047,-0.0976 l -1.614,-2.2852 c -0.039,-0.0468 -0.093,-0.1367 -0.132,-0.1953 L 950.906,43.7109 c -0.027,-0.0703 -0.027,-0.1562 0,-0.207 L 979.797,2.56641 c 0.039,-0.0586 0.105,-0.13672 0.137,-0.20313 l 1.668,-2.3437487" /><path
         id="path18-4"
         style="fill:#686c70;fill-opacity:1;fill-rule:nonzero;stroke:none"
         d="m 586.23,0 h -18.781 v 85.0391 h 29.602 c 11.015,0 17.39,-2.0235 22.812,-7.1407 4.934,-4.9492 7.434,-11.4921 7.434,-19.5 0,-9.5625 -3.496,-17.832 -9.863,-23.2929 -6.133,-5.2032 -13.672,-7.4492 -25.2,-7.4492 -2.468,0 -4.089,0.0976 -6.004,0.2539 V 1.57031 Z m 2.403,44.3359 c 1.789,-0.1171 4.062,-0.1171 4.668,-0.1171 11.316,0 15.918,3.75 15.918,12.9375 0,8.0273 -3.723,11.4648 -12.449,11.4648 H 586.23 V 44.3555 l 0.516,-0.0313 1.887,0.0117" /><path
         id="path20-5"
         style="fill:#f25b28;fill-opacity:1;fill-rule:nonzero;stroke:none"
         d="M 289.133,228.945 H 48.1836 v 24.239 H 289.133 v -24.239" /><path
         id="path22-5"
         style="fill:#f25b28;fill-opacity:1;fill-rule:nonzero;stroke:none"
         d="M 144.563,289.219 H 48.1836 v 24.238 h 96.3794 v -24.238" /><path
         id="path24-1"
         style="fill:#f25b28;fill-opacity:1;fill-rule:nonzero;stroke:none"
         d="M 144.563,349.492 H 48.1836 v 24.238 h 96.3794 v -24.238" /><path
         id="path26-7"
         style="fill:#f25b28;fill-opacity:1;fill-rule:nonzero;stroke:none"
         d="m 289.133,349.492 h -96.379 v 24.238 h 96.379 v -24.238" /><path
         id="path28-1"
         style="fill:#f25b28;fill-opacity:1;fill-rule:nonzero;stroke:none"
         d="m 289.133,289.219 h -96.379 v 24.238 h 96.379 v -24.238" /><path
         id="path30-1"
         style="fill:#686c70;fill-opacity:1;fill-rule:nonzero;stroke:none"
         d="M 289.133,411.328 H 0 v 22.676 h 289.133 v -22.676" /><path
         id="path32-5"
         style="fill:#f25b28;fill-opacity:1;fill-rule:nonzero;stroke:none"
         d="m 360,253.184 h -70.867 v 24.238 H 360 v -24.238" /><path
         id="path34-2"
         style="fill:#f25b28;fill-opacity:1;fill-rule:nonzero;stroke:none"
         d="m 360,313.457 h -70.867 v 24.238 H 360 v -24.238" /><path
         id="path36-7"
         style="fill:#f25b28;fill-opacity:1;fill-rule:nonzero;stroke:none"
         d="M 589.602,253.184 H 445.027 v 24.238 h 144.575 v -24.238" /><path
         id="path38-6"
         style="fill:#f25b28;fill-opacity:1;fill-rule:nonzero;stroke:none"
         d="M 589.602,313.457 H 445.027 v 24.238 h 144.575 v -24.238" /><path
         id="path40-1"
         style="fill:#f25b28;fill-opacity:1;fill-rule:nonzero;stroke:none"
         d="M 589.602,373.73 H 289.133 v 24.239 H 589.602 V 373.73" /><path
         id="path42-4"
         style="fill:#686c70;fill-opacity:1;fill-rule:nonzero;stroke:none"
         d="M 589.602,434.004 H 289.133 v 22.676 h 300.469 v -22.676" /><path
         id="path44-2"
         style="fill:#f25b28;fill-opacity:1;fill-rule:nonzero;stroke:none"
         d="m 1230.22,228.945 h 240.95 v 24.239 h -240.95 v -24.239" /><path
         id="path46-3"
         style="fill:#f25b28;fill-opacity:1;fill-rule:nonzero;stroke:none"
         d="m 1374.79,289.219 h 96.38 v 24.238 h -96.38 v -24.238" /><path
         id="path48"
         style="fill:#f25b28;fill-opacity:1;fill-rule:nonzero;stroke:none"
         d="m 1374.79,349.492 h 96.38 v 24.238 h -96.38 v -24.238" /><path
         id="path50-2"
         style="fill:#f25b28;fill-opacity:1;fill-rule:nonzero;stroke:none"
         d="m 1230.22,349.492 h 96.38 v 24.238 h -96.38 v -24.238" /><path
         id="path52-2"
         style="fill:#f25b28;fill-opacity:1;fill-rule:nonzero;stroke:none"
         d="m 1230.22,289.219 h 96.38 v 24.238 h -96.38 v -24.238" /><path
         id="path54-1"
         style="fill:#686c70;fill-opacity:1;fill-rule:nonzero;stroke:none"
         d="m 1230.22,411.328 h 289.14 v 22.676 h -289.14 v -22.676" /><path
         id="path56-6"
         style="fill:#f25b28;fill-opacity:1;fill-rule:nonzero;stroke:none"
         d="m 1159.36,253.184 h 70.86 v 24.238 h -70.86 v -24.238" /><path
         id="path58-8"
         style="fill:#f25b28;fill-opacity:1;fill-rule:nonzero;stroke:none"
         d="m 1159.36,313.457 h 70.86 v 24.238 h -70.86 v -24.238" /><path
         id="path60-5"
         style="fill:#f25b28;fill-opacity:1;fill-rule:nonzero;stroke:none"
         d="m 929.758,253.184 h 144.572 v 24.238 H 929.758 v -24.238" /><path
         id="path62-7"
         style="fill:#f25b28;fill-opacity:1;fill-rule:nonzero;stroke:none"
         d="m 929.758,313.457 h 144.572 v 24.238 H 929.758 v -24.238" /><path
         id="path64-6"
         style="fill:#f25b28;fill-opacity:1;fill-rule:nonzero;stroke:none"
         d="m 929.758,373.73 h 300.462 v 24.239 H 929.758 V 373.73" /><path
         id="path66-1"
         style="fill:#686c70;fill-opacity:1;fill-rule:nonzero;stroke:none"
         d="M 929.758,434.004 H 1230.22 V 456.68 H 929.758 v -22.676" /><path
         id="path68-8"
         style="fill:#f25b28;fill-opacity:1;fill-rule:nonzero;stroke:none"
         d="M 929.758,409.766 H 589.602 v 24.238 h 340.156 v -24.238" /><path
         id="path70-9"
         style="fill:#f25b28;fill-opacity:1;fill-rule:nonzero;stroke:none"
         d="M 714.324,349.492 H 589.602 v 24.238 h 124.722 v -24.238" /><path
         id="path72-2"
         style="fill:#f25b28;fill-opacity:1;fill-rule:nonzero;stroke:none"
         d="M 714.324,289.219 H 589.602 v 24.238 h 124.722 v -24.238" /><path
         id="path74-7"
         style="fill:#f25b28;fill-opacity:1;fill-rule:nonzero;stroke:none"
         d="M 714.324,228.945 H 589.602 v 24.239 h 124.722 v -24.239" /><path
         id="path76-9"
         style="fill:#f25b28;fill-opacity:1;fill-rule:nonzero;stroke:none"
         d="M 714.324,168.672 H 589.602 v 24.238 h 124.722 v -24.238" /><path
         id="path78-5"
         style="fill:#f25b28;fill-opacity:1;fill-rule:nonzero;stroke:none"
         d="M 929.758,349.492 H 805.027 v 24.238 h 124.731 v -24.238" /><path
         id="path80-4"
         style="fill:#f25b28;fill-opacity:1;fill-rule:nonzero;stroke:none"
         d="M 929.758,289.219 H 805.027 v 24.238 h 124.731 v -24.238" /><path
         id="path82-3"
         style="fill:#f25b28;fill-opacity:1;fill-rule:nonzero;stroke:none"
         d="M 929.758,228.945 H 805.027 v 24.239 h 124.731 v -24.239" /><path
         id="path84-1"
         style="fill:#f25b28;fill-opacity:1;fill-rule:nonzero;stroke:none"
         d="M 929.758,168.672 H 805.027 v 24.238 h 124.731 v -24.238" /><path
         id="path86-2"
         style="fill:#686c70;fill-opacity:1;fill-rule:nonzero;stroke:none"
         d="M 144.563,491.297 H 71.0078 c 8.3281,55.891 48.9532,98.437 97.6522,98.437 48.695,0 89.32,-42.546 97.649,-98.437 h -73.555 v -21.258 h 96.379 c 0,77.84 -53.938,140.945 -120.481,140.945 -66.535,0 -120.4684,-63.105 -120.4684,-140.945 h 96.3794 v 21.258" /><path
         id="path88-3"
         style="fill:#686c70;fill-opacity:1;fill-rule:nonzero;stroke:none"
         d="m 1326.6,491.297 h -73.55 c 8.33,55.891 48.95,98.437 97.65,98.437 48.69,0 89.32,-42.546 97.65,-98.437 h -73.56 v -21.258 h 96.38 c 0,77.84 -53.93,140.945 -120.48,140.945 -66.53,0 -120.47,-63.105 -120.47,-140.945 h 96.38 v 21.258" /><path
         id="path90-3"
         style="fill:#686c70;fill-opacity:1;fill-rule:nonzero;stroke:none"
         d="m 714.324,491.297 h -102.41 c 8.809,88.027 71.719,156.476 147.754,156.476 76.047,0 138.965,-68.449 147.773,-156.476 H 805.027 v -21.258 h 124.731 c 0,109.891 -76.145,198.984 -170.09,198.984 -93.926,0 -170.066,-89.093 -170.066,-198.984 h 124.722 v 21.258" /><path
         id="path92-4"
         style="fill:#686c70;fill-opacity:1;fill-rule:nonzero;stroke:none"
         d="m 1742.02,423.133 h -11.96 v -29.922 l 2.17,-0.137 h 2.19 c 1.89,0 3.12,-0.136 3.79,-0.136 13.34,0 19.18,4.902 19.18,15.917 0,9.786 -4.77,14.278 -15.37,14.278 z m 22.85,-37.129 c -6.39,-5.43 -14.28,-7.734 -26.53,-7.734 -3.39,0 -5.29,0.136 -8.28,0.39 v -30.722 h -17.12 v 89.726 h 30.72 c 11.7,0 18.22,-2.031 23.79,-7.324 5.04,-5.039 7.61,-11.836 7.61,-20.137 0,-9.922 -3.53,-18.476 -10.19,-24.199" /><path
         id="path94-1"
         style="fill:#686c70;fill-opacity:1;fill-rule:nonzero;stroke:none"
         d="m 1827.43,403.27 c -10.88,0 -20.53,-10.196 -20.53,-22.012 0,-11.836 9.65,-22.031 20.53,-22.031 10.74,0 20.39,10.195 20.39,22.031 0,11.816 -9.65,22.012 -20.39,22.012 z m 0,-56.68 c -22.97,0 -37.8,13.867 -37.8,34.668 -0.13,21.211 14.55,34.668 37.8,34.668 23.24,0 37.65,-13.457 37.65,-34.668 0,-20.801 -14.8,-34.668 -37.65,-34.668" /><path
         id="path96-1"
         style="fill:#686c70;fill-opacity:1;fill-rule:nonzero;stroke:none"
         d="m 1917.47,402.332 v -54.394 h -16.33 v 54.394 h -20.26 v 12.363 h 56.84 v -12.363 h -20.25" /><path
         id="path98-3"
         style="fill:#686c70;fill-opacity:1;fill-rule:nonzero;stroke:none"
         d="m 1999.46,397.43 c -6.94,3.672 -10.88,4.629 -17.27,4.629 -4.22,0 -8.28,-1.368 -8.28,-4.629 0,-4.356 6.25,-7.071 13.05,-10.606 9.78,-5.156 18.22,-8.027 18.22,-20.664 0,-12.773 -9.67,-19.57 -25.29,-19.57 -11.29,0 -18.36,2.988 -26.12,7.07 l 7.07,12.774 c 6.53,-3.672 12.52,-5.977 19.18,-5.977 4.09,0 8.29,1.211 8.29,5.02 0,5.312 -12.91,10.332 -16.31,12.109 -11.82,6.523 -15.76,10.605 -15.76,18.887 0,13.867 11.54,19.316 26.36,19.316 9.79,0 15.51,-1.777 23.79,-5.449 l -6.93,-12.91" /><path
         id="path100-87"
         style="fill:#686c70;fill-opacity:1;fill-rule:nonzero;stroke:none"
         d="m 2056.04,401.922 h -8.55 V 360.73 h 8.55 c 13.46,0 22.44,8.149 22.44,20.665 0,10.332 -5.86,20.527 -22.44,20.527 z m 1.37,-53.984 h -26.12 v 66.757 h 26.25 c 25.16,0 38.07,-13.047 38.07,-33.164 0,-20 -13.05,-33.593 -38.2,-33.593" /><path
         id="path102-4"
         style="fill:#686c70;fill-opacity:1;fill-rule:nonzero;stroke:none"
         d="m 2142.68,396.473 -6.8,-21.344 h 12.78 z m 15.08,-48.535 -5.02,14.691 h -20.12 l -5.31,-14.691 h -17.4 l 25.43,66.757 h 14.41 l 25.41,-66.757 h -17.4" /><path
         id="path104-2"
         style="fill:#686c70;fill-opacity:1;fill-rule:nonzero;stroke:none"
         d="m 2255.55,347.938 v 38.613 l -18.63,-38.887 h -6.93 l -17.27,38.066 v -37.792 h -14.41 v 66.757 h 16.71 l 19.05,-44.453 19.84,44.453 h 16.6 v -66.757 h -14.96" /><path
         id="path106-7"
         style="fill:#686c70;fill-opacity:1;fill-rule:nonzero;stroke:none"
         d="m 2348.74,347.938 v 89.726 h 17.12 v -89.726 h -17.12" /><path
         id="path108-7"
         style="fill:#686c70;fill-opacity:1;fill-rule:nonzero;stroke:none"
         d="m 2441.06,347.801 -29.08,43.242 v -43.105 h -14.96 v 66.757 h 17.4 l 27.73,-43.496 v 43.496 h 14.96 v -66.894 h -16.05" /><path
         id="path110-9"
         style="fill:#686c70;fill-opacity:1;fill-rule:nonzero;stroke:none"
         d="m 2528.52,397.43 c -6.93,3.672 -10.88,4.629 -17.27,4.629 -4.21,0 -8.3,-1.368 -8.3,-4.629 0,-4.356 6.25,-7.071 13.05,-10.606 9.79,-5.156 18.22,-8.027 18.22,-20.664 0,-12.773 -9.64,-19.57 -25.29,-19.57 -11.27,0 -18.34,2.988 -26.09,7.07 l 7.07,12.774 c 6.52,-3.672 12.5,-5.977 19.16,-5.977 4.08,0 8.3,1.211 8.3,5.02 0,5.312 -12.91,10.332 -16.31,12.109 -11.84,6.523 -15.78,10.605 -15.78,18.887 0,13.867 11.56,19.316 26.39,19.316 9.78,0 15.48,-1.777 23.78,-5.449 l -6.93,-12.91" /><path
         id="path112-3"
         style="fill:#686c70;fill-opacity:1;fill-rule:nonzero;stroke:none"
         d="m 2589.99,402.332 v -54.394 h -16.31 v 54.394 h -20.26 v 12.363 h 56.82 v -12.363 h -20.25" /><path
         id="path114-1"
         style="fill:#686c70;fill-opacity:1;fill-rule:nonzero;stroke:none"
         d="m 2631.76,347.938 v 66.757 h 16.31 v -66.757 h -16.31" /><path
         id="path116-9"
         style="fill:#686c70;fill-opacity:1;fill-rule:nonzero;stroke:none"
         d="m 2706.14,402.332 v -54.394 h -16.33 v 54.394 h -20.25 v 12.363 h 56.83 v -12.363 h -20.25" /><path
         id="path118-8"
         style="fill:#686c70;fill-opacity:1;fill-rule:nonzero;stroke:none"
         d="m 2797.25,351.473 c -4.76,-3.262 -9.8,-4.883 -19.86,-4.883 -10.2,0 -15.63,1.621 -20.53,4.883 -6.93,4.492 -9.37,9.648 -9.37,22.715 v 40.507 h 16.17 v -41.191 c 0,-8.301 5.45,-13.867 14.27,-13.867 9.24,0 13.32,6.933 13.32,13.867 v 41.191 h 15.79 v -40.507 c 0,-11.973 -2.74,-18.086 -9.79,-22.715" /><path
         id="path120-6"
         style="fill:#686c70;fill-opacity:1;fill-rule:nonzero;stroke:none"
         d="m 2864.71,402.332 v -54.394 h -16.33 v 54.394 h -20.25 v 12.363 h 56.84 v -12.363 h -20.26" /><path
         id="path122-5"
         style="fill:#686c70;fill-opacity:1;fill-rule:nonzero;stroke:none"
         d="m 2906.33,347.938 v 66.757 h 44.46 v -12.363 h -28.27 v -14.141 h 23.25 v -12.382 h -23.25 V 360.32 h 29.77 v -12.382 h -45.96" /><path
         id="path124-0"
         style="fill:#686c70;fill-opacity:1;fill-rule:nonzero;stroke:none"
         d="m 3037.58,402.332 v -14.824 h 23.93 v -12.379 h -23.93 v -27.191 h -16.19 v 66.757 h 45.28 v -12.363 h -29.09" /><path
         id="path126-2"
         style="fill:#686c70;fill-opacity:1;fill-rule:nonzero;stroke:none"
         d="m 3121.9,403.27 c -10.88,0 -20.55,-10.196 -20.55,-22.012 0,-11.836 9.67,-22.031 20.55,-22.031 10.74,0 20.39,10.195 20.39,22.031 0,11.816 -9.65,22.012 -20.39,22.012 z m 0,-56.68 c -22.99,0 -37.81,13.867 -37.81,34.668 -0.14,21.211 14.55,34.668 37.81,34.668 23.24,0 37.66,-13.457 37.66,-34.668 0,-20.801 -14.83,-34.668 -37.66,-34.668" /><path
         id="path128-8"
         style="fill:#686c70;fill-opacity:1;fill-rule:nonzero;stroke:none"
         d="m 3209.34,402.742 h -8.03 v -16.601 h 8.03 c 6.25,0 8.83,4.082 8.83,8.3 0,4.356 -2.31,8.301 -8.83,8.301 z m 9.51,-54.804 -14.14,26.66 h -3.4 v -26.66 h -16.17 v 66.757 h 28.28 c 11.55,0 21.35,-4.629 21.35,-19.98 0,-11.152 -5.31,-16.992 -13.2,-18.77 l 15.78,-28.007 h -18.5" /><path
         id="path130-6"
         style="fill:#686c70;fill-opacity:1;fill-rule:nonzero;stroke:none"
         d="m 1773.29,298.145 c -5.84,4.218 -12.78,6.257 -20.67,6.257 -17.26,0 -29.63,-12.234 -29.63,-29.238 0,-19.297 12.78,-31.941 32.37,-31.941 6.38,0 11.68,1.082 19.7,4.207 l 3.13,-14.403 c -5.7,-2.589 -8.03,-3.398 -12.11,-4.355 -4.34,-0.949 -9.1,-1.496 -14.4,-1.496 -14,0 -24.06,3.535 -32.5,11.152 -9.5,8.567 -15.09,21.887 -15.09,35.891 0,13.047 4.9,24.883 13.73,33.582 8.98,8.84 19.04,12.519 33.86,12.519 11.41,0 20.4,-2.734 28.15,-8.582 l -6.54,-13.593" /><path
         id="path132-0"
         style="fill:#686c70;fill-opacity:1;fill-rule:nonzero;stroke:none"
         d="m 1799.69,228.945 v 66.758 h 16.17 v -54.25 h 27.47 v -12.508 h -43.64" /><path
         id="path134-2"
         style="fill:#686c70;fill-opacity:1;fill-rule:nonzero;stroke:none"
         d="m 1865.79,228.945 v 66.758 h 16.3 v -66.758 h -16.3" /><path
         id="path136-4"
         style="fill:#686c70;fill-opacity:1;fill-rule:nonzero;stroke:none"
         d="m 1971.29,228.945 v 38.614 l -18.61,-38.887 h -6.93 l -17.27,38.066 v -37.793 h -14.41 v 66.758 h 16.72 l 19.04,-44.465 19.84,44.465 h 16.58 v -66.758 h -14.96" /><path
         id="path138-8"
         style="fill:#686c70;fill-opacity:1;fill-rule:nonzero;stroke:none"
         d="m 2042.58,277.48 -6.79,-21.347 h 12.77 z m 15.1,-48.535 -5.04,14.688 h -20.12 l -5.29,-14.688 h -17.4 l 25.41,66.758 h 14.41 l 25.43,-66.758 h -17.4" /><path
         id="path140-6"
         style="fill:#686c70;fill-opacity:1;fill-rule:nonzero;stroke:none"
         d="m 2118.21,283.328 v -54.383 h -16.33 v 54.383 h -20.25 v 12.375 h 56.83 v -12.375 h -20.25" /><path
         id="path142-5"
         style="fill:#686c70;fill-opacity:1;fill-rule:nonzero;stroke:none"
         d="m 2159.83,228.945 v 66.758 h 44.45 V 283.328 H 2176 v -14.14 h 23.24 V 256.816 H 2176 v -15.5 h 29.79 v -12.371 h -45.96" /><path
         id="path144-0"
         style="fill:#686c70;fill-opacity:1;fill-rule:nonzero;stroke:none"
         d="m 2274.48,228.945 v 89.727 h 17.13 v -89.727 h -17.13" /><path
         id="path146-9"
         style="fill:#686c70;fill-opacity:1;fill-rule:nonzero;stroke:none"
         d="m 2380.12,228.945 v 38.614 l -18.61,-38.887 h -6.93 l -17.27,38.066 v -37.793 h -14.41 v 66.758 h 16.71 l 19.05,-44.465 19.84,44.465 h 16.58 v -66.758 h -14.96" /><path
         id="path148-0"
         style="fill:#686c70;fill-opacity:1;fill-rule:nonzero;stroke:none"
         d="m 2451.27,283.465 h -7.34 v -20.262 c 1.49,0 3.13,0 4.63,0 8.01,0 12.64,3.945 12.64,10.606 0,5.711 -3.95,9.656 -9.93,9.656 z m -2.71,-32.762 c -1.91,0 -3.4,0 -4.63,0.125 v -21.883 h -16.17 v 66.758 h 24.73 c 17.14,0 25.29,-6.262 25.29,-20.937 0,-16.321 -9.92,-24.063 -29.22,-24.063" /><path
         id="path150-0"
         style="fill:#686c70;fill-opacity:1;fill-rule:nonzero;stroke:none"
         d="m 2521.59,277.48 -6.8,-21.347 h 12.77 z m 15.09,-48.535 -5.03,14.688 h -20.12 l -5.29,-14.688 h -17.41 l 25.41,66.758 h 14.42 l 25.43,-66.758 h -17.41" /><path
         id="path152-61"
         style="fill:#686c70;fill-opacity:1;fill-rule:nonzero;stroke:none"
         d="m 2605.77,227.586 c -23.11,0 -37.52,14.141 -37.52,35.078 0,20.391 14.82,34.258 37.52,34.258 10.33,0 16.44,-2.852 22.57,-6.25 L 2621,278.164 c -2.99,2.039 -6.93,5.301 -14.55,5.301 -11.15,0 -20.8,-7.481 -20.8,-20.125 0,-13.32 9.92,-22.297 22.69,-22.297 7.76,0 11.7,2.453 15.1,3.945 l 5.84,-12.644 c -8.42,-3.672 -14.8,-4.758 -23.51,-4.758" /><path
         id="path154-3"
         style="fill:#686c70;fill-opacity:1;fill-rule:nonzero;stroke:none"
         d="m 2682.08,283.328 v -54.383 h -16.33 v 54.383 h -20.26 v 12.375 h 56.84 v -12.375 h -20.25" /><path
         id="path156-8"
         style="fill:#686c70;fill-opacity:1;fill-rule:nonzero;stroke:none"
         d="m 2794.95,304.129 h -11.16 v -24.746 h 11.16 c 10.88,0 15.64,3.808 15.64,12.785 0,8.562 -4.49,11.961 -15.64,11.961 z m 17.95,-75.184 -20.53,35.887 h -8.58 v -35.887 h -17.12 v 89.727 h 29.92 c 13.04,0 19.02,-1.633 24.33,-6.66 4.89,-4.485 7.35,-11.008 7.35,-19.446 0,-6.933 -1.64,-12.5 -4.91,-16.855 -3.39,-4.344 -6.52,-6.25 -14,-8.289 l 22.31,-38.477 h -18.77" /><path
         id="path158-9"
         style="fill:#686c70;fill-opacity:1;fill-rule:nonzero;stroke:none"
         d="m 2853.17,228.945 v 66.758 h 44.45 v -12.375 h -28.28 v -14.14 h 23.24 v -12.372 h -23.24 v -15.5 h 29.79 v -12.371 h -45.96" /><path
         id="path160-3"
         style="fill:#686c70;fill-opacity:1;fill-rule:nonzero;stroke:none"
         d="m 2964.81,278.438 c -6.93,3.66 -10.88,4.617 -17.27,4.617 -4.21,0 -8.28,-1.356 -8.28,-4.617 0,-4.356 6.25,-7.071 13.05,-10.606 9.78,-5.168 18.22,-8.027 18.22,-20.664 0,-12.785 -9.67,-19.582 -25.29,-19.582 -11.29,0 -18.36,2.988 -26.11,7.07 l 7.07,12.774 c 6.52,-3.672 12.52,-5.977 19.18,-5.977 4.08,0 8.28,1.223 8.28,5.031 0,5.301 -12.91,10.332 -16.31,12.098 -11.82,6.523 -15.76,10.606 -15.76,18.898 0,13.868 11.54,19.305 26.36,19.305 9.79,0 15.51,-1.765 23.79,-5.437 l -6.93,-12.91" /><path
         id="path162-4"
         style="fill:#686c70;fill-opacity:1;fill-rule:nonzero;stroke:none"
         d="m 2996.78,228.945 v 66.758 h 44.46 v -12.375 h -28.27 v -14.14 h 23.25 v -12.372 h -23.25 v -15.5 h 29.77 v -12.371 h -45.96" /><path
         id="path164-4"
         style="fill:#686c70;fill-opacity:1;fill-rule:nonzero;stroke:none"
         d="m 3094.28,277.48 -6.79,-21.347 h 12.77 z m 15.1,-48.535 -5.04,14.688 h -20.12 l -5.29,-14.688 h -17.4 l 25.41,66.758 h 14.41 l 25.43,-66.758 h -17.4" /><path
         id="path166-6"
         style="fill:#686c70;fill-opacity:1;fill-rule:nonzero;stroke:none"
         d="m 3172.35,283.738 h -8.01 v -16.59 h 8.01 c 6.27,0 8.85,4.082 8.85,8.29 0,4.355 -2.33,8.3 -8.85,8.3 z m 9.53,-54.793 -14.14,26.649 h -3.4 v -26.649 h -16.19 v 66.758 h 28.28 c 11.56,0 21.35,-4.629 21.35,-19.992 0,-11.141 -5.29,-16.992 -13.19,-18.758 l 15.77,-28.008 h -18.48" /><path
         id="path168-0"
         style="fill:#686c70;fill-opacity:1;fill-rule:nonzero;stroke:none"
         d="m 3256.53,227.586 c -23.11,0 -37.52,14.141 -37.52,35.078 0,20.391 14.82,34.258 37.52,34.258 10.33,0 16.44,-2.852 22.58,-6.25 l -7.35,-12.508 c -2.99,2.039 -6.93,5.301 -14.55,5.301 -11.15,0 -20.8,-7.481 -20.8,-20.125 0,-13.32 9.92,-22.297 22.7,-22.297 7.75,0 11.7,2.453 15.09,3.945 l 5.84,-12.644 c -8.41,-3.672 -14.8,-4.758 -23.51,-4.758" /><path
         id="path170-66"
         style="fill:#686c70;fill-opacity:1;fill-rule:nonzero;stroke:none"
         d="m 3351.31,228.945 v 27.871 h -31.4 v -27.871 h -16.17 v 66.758 h 16.17 v -25.969 h 31.4 v 25.969 h 16.19 v -66.758 h -16.19" /></g></g></svg>
