<?xml version="1.0" encoding="UTF-8"?>
<svg id="svg8" width="960" height="318" version="1.1" viewBox="0 0 960 318" xmlns="http://www.w3.org/2000/svg">
  <defs id="defs25">
    <marker id="marker2246" overflow="visible" orient="auto">
      <path id="path2244" transform="scale(-.6)" d="m8.7186 4.0337-10.926-4.0177 10.926-4.0177c-1.7455 2.3721-1.7354 5.6175 0 8.0354z" fill-rule="evenodd" stroke="#000" stroke-linejoin="round" stroke-width=".625"/>
    </marker>
    <marker id="marker2182" overflow="visible" orient="auto">
      <path id="path2180" transform="scale(-.6)" d="m8.7186 4.0337-10.926-4.0177 10.926-4.0177c-1.7455 2.3721-1.7354 5.6175 0 8.0354z" fill-rule="evenodd" stroke="#000" stroke-linejoin="round" stroke-width=".625"/>
    </marker>
    <marker id="Arrow2Mend" overflow="visible" orient="auto">
      <path id="path881" transform="scale(-.6)" d="m8.7186 4.0337-10.926-4.0177 10.926-4.0177c-1.7455 2.3721-1.7354 5.6175 0 8.0354z" fill-rule="evenodd" stroke="#000" stroke-linejoin="round" stroke-width=".625"/>
    </marker>
    <marker id="marker2246-0" overflow="visible" orient="auto">
      <path id="path2244-7" transform="scale(-.6)" d="m8.7186 4.0337-10.926-4.0177 10.926-4.0177c-1.7455 2.3721-1.7354 5.6175 0 8.0354z" fill-rule="evenodd" stroke="#000" stroke-linejoin="round" stroke-width=".625"/>
    </marker>
  </defs>
  <g stroke-width="3">
    <circle id="path1305-2-2-3-31-2-6" cx="92.816" cy="114.7" r="12" stop-color="#000000"/>
    <circle id="path1305-2-2-3-31-2-9" cx="92.816" cy="204.7" r="12" stop-color="#000000"/>
    <circle id="path1305-2-2-3-31-2-7" cx="453.44" cy="114.7" r="12" stop-color="#000000"/>
    <circle id="path1305-2-2-3-31-2-5" cx="813.2" cy="114.7" r="12" stop-color="#000000"/>
    <circle id="path1305-2-2-3-31-2-94" cx="935.54" cy="204.7" r="12" stop-color="#000000"/>
    <circle id="path1305-2-2-3-31-1" cx="242.92" cy="24.695" r="12" stop-color="#000000"/>
    <circle id="path1305-2-2-3-31-2" cx="92.816" cy="24.695" r="12" stop-color="#000000"/>
    <circle id="path1305-2-2-3-31" cx="392.15" cy="24.695" r="12" stop-color="#000000"/>
  </g>
  <g id="g20" transform="matrix(3 0 0 3 -.0065975 2.3898)" fill="none" stroke="#000">
    <path id="path1274-4" d="m180.55 7.4351h50.037" stroke-dasharray="4, 4"/>
    <path id="path1274-1" d="m31.982 68.202h280.25"/>
    <path id="path1274" d="m31.982 7.4351h148.57"/>
  </g>
  <g id="g541" transform="matrix(3 0 0 3 -49.837 -20.39)">
    <path id="path852" d="m99.796 92.032h170.35" fill="none" marker-end="url(#Arrow2Mend)" stroke="#000" stroke-width="1.9766"/>
    <text id="text1164" x="166.01326" y="110.10403" font-family="Arial" font-size="16px" letter-spacing="0px" word-spacing="0px" style="line-height:1.25" xml:space="preserve"><tspan id="tspan1162" x="166.01326" y="110.10403">Time</tspan></text>
  </g>
  <g id="g32" transform="matrix(3 0 0 3 -.0065975 2.3898)" font-family="Arial" font-size="16px" letter-spacing="0px" word-spacing="0px">
    <text id="text1164-0-2" x="4.1806374" y="13.161625" style="line-height:1.25" xml:space="preserve"><tspan id="tspan1162-0-2" x="4.1806374" y="13.161625">A</tspan></text>
    <text id="text1164-0-2-3" x="4.0204811" y="43.161625" style="line-height:1.25" xml:space="preserve"><tspan id="tspan1162-0-2-3" x="4.0204811" y="43.161625">B</tspan></text>
    <text id="text1164-0-2-0" x="3.6572001" y="73.161629" style="line-height:1.25" xml:space="preserve"><tspan id="tspan1162-0-2-7" x="3.6572001" y="73.161629">C</tspan></text>
  </g>
  <path id="path1274-0" d="m95.939 114.7h717.24" fill="none" stroke="#000" stroke-width="3"/>
  <circle id="path1305-2-2-3" cx="541.52" cy="24.695" r="12" stop-color="#000000" stroke-width="3"/>
  <g id="g38" transform="matrix(3 0 0 3 12.465 7.5153)" stroke="#000">
    <path id="path1274-4-1" d="m226.43 5.7266h50.037" fill="none" stroke-dasharray="2, 4"/>
    <circle id="path1305-2-2-3-3" cx="226.13" cy="5.7266" r="3.5" fill="#fff" stop-color="#000000" stroke-linecap="round" stroke-linejoin="round"/>
    <circle id="path1305-2-2-3-3-0" cx="276.17" cy="5.7266" r="3.5" fill="#fff" stop-color="#000000" stroke-linecap="round" stroke-linejoin="round"/>
  </g>
  <g fill="none" stroke="#000" stroke-width="3">
    <path id="path1692" d="m536.42 82.83v-38.577" marker-end="url(#marker2246)"/>
    <path id="path1692-2" d="m544.22 175.71v-131.2" marker-end="url(#marker2182)"/>
    <path id="path2404" d="m464 107.09c13.416-20.346 56.016-7.5318 72.42-24.26 20.023 25.619 235.23-0.49413 263.33 26.036"/>
    <path id="path1692-23" d="m453.44 58.121v38.577" marker-end="url(#marker2246-0)"/>
    <path id="path2404-7" d="m400.32 37.195c13.416 20.346 36.722 4.197 53.126 20.925 22.718-22.587 48.947 3.8628 77.048-22.667"/>
    <path id="path2404-5" d="m108.38 199.46c25.349-27.883 416.28 9.3147 435.84-23.743 26.932 33.783 341.31-6.6633 373.8 25.52"/>
  </g>
</svg>
