<?xml version="1.0" encoding="UTF-8"?>
<svg id="svg8" width="320" height="112" version="1.1" viewBox="0 0 320 112" xmlns="http://www.w3.org/2000/svg">
  <defs id="defs25">
    <marker id="marker2246" overflow="visible" orient="auto">
      <path id="path2244" transform="scale(-.6)" d="m8.7186 4.0337-10.926-4.0177 10.926-4.0177c-1.7455 2.3721-1.7354 5.6175 0 8.0354z" fill-rule="evenodd" stroke="#000" stroke-linejoin="round" stroke-width=".625"/>
    </marker>
    <marker id="marker2182" overflow="visible" orient="auto">
      <path id="path2180" transform="scale(-.6)" d="m8.7186 4.0337-10.926-4.0177 10.926-4.0177c-1.7455 2.3721-1.7354 5.6175 0 8.0354z" fill-rule="evenodd" stroke="#000" stroke-linejoin="round" stroke-width=".625"/>
    </marker>
    <marker id="Arrow2Mend" overflow="visible" orient="auto">
      <path id="path881" transform="scale(-.6)" d="m8.7186 4.0337-10.926-4.0177 10.926-4.0177c-1.7455 2.3721-1.7354 5.6175 0 8.0354z" fill-rule="evenodd" stroke="#000" stroke-linejoin="round" stroke-width=".625"/>
    </marker>
  </defs>
  <g id="g2483" transform="translate(4.1572 1.7085)">
    <circle id="path1305-2-2-3-31-2-6" cx="26.784" cy="35.727" r="4" stop-color="#000000"/>
    <circle id="path1305-2-2-3-31-2-9" cx="26.784" cy="65.727" r="4" stop-color="#000000"/>
    <circle id="path1305-2-2-3-31-2-7" cx="146.99" cy="35.727" r="4" stop-color="#000000"/>
    <circle id="path1305-2-2-3-31-2-5" cx="266.91" cy="35.727" r="4" stop-color="#000000"/>
    <circle id="path1305-2-2-3-31-2-94" cx="307.69" cy="65.727" r="4" stop-color="#000000"/>
    <circle id="path1305-2-2-3-31-1" cx="76.819" cy="5.7266" r="4" stop-color="#000000"/>
    <circle id="path1305-2-2-3-31-2" cx="26.784" cy="5.7266" r="4" stop-color="#000000"/>
    <circle id="path1305-2-2-3-31" cx="126.56" cy="5.7266" r="4" stop-color="#000000"/>
    <g fill="none" stroke="#000">
      <path id="path1274-4" d="m176.39 5.7266h50.037" stroke-dasharray="4, 4"/>
      <path id="path1274-1" d="m27.825 66.494h280.25"/>
      <path id="path1274" d="m27.825 5.7266h148.57"/>
      <path id="path852" d="m95.639 90.323h170.35" marker-end="url(#Arrow2Mend)" stroke-width="1.9766"/>
    </g>
    <g font-family="Arial" font-size="16px" letter-spacing="0px" word-spacing="0px">
      <text id="text1164" x="161.85606" y="108.39552" style="line-height:1.25" xml:space="preserve"><tspan id="tspan1162" x="161.85606" y="108.39552">Time</tspan></text>
      <text id="text1164-0-2" x="0.0234375" y="11.453125" style="line-height:1.25" xml:space="preserve"><tspan id="tspan1162-0-2" x="0.0234375" y="11.453125">A</tspan></text>
      <text id="text1164-0-2-3" x="-0.13671875" y="41.453125" style="line-height:1.25" xml:space="preserve"><tspan id="tspan1162-0-2-3" x="-0.13671875" y="41.453125">B</tspan></text>
      <text id="text1164-0-2-0" x="-0.5" y="71.453125" style="line-height:1.25" xml:space="preserve"><tspan id="tspan1162-0-2-7" x="-0.5" y="71.453125">C</tspan></text>
    </g>
    <path id="path1274-0" d="m27.825 35.727h239.08" fill="none" stroke="#000"/>
    <circle id="path1305-2-2-3" cx="176.35" cy="5.7266" r="4" stop-color="#000000"/>
    <g stroke="#000">
      <path id="path1274-4-1" d="m226.43 5.7266h50.037" fill="none" stroke-dasharray="2, 4"/>
      <circle id="path1305-2-2-3-3" cx="226.13" cy="5.7266" r="3.5" fill="#fff" stop-color="#000000" stroke-linecap="round" stroke-linejoin="round"/>
      <circle id="path1305-2-2-3-3-0" cx="276.17" cy="5.7266" r="3.5" fill="#fff" stop-color="#000000" stroke-linecap="round" stroke-linejoin="round"/>
    </g>
    <g fill="none" stroke="#000">
      <path id="path1692" d="m174.65 25.105v-12.859" marker-end="url(#marker2246)"/>
      <path id="path1692-2" d="m177.25 56.066v-43.733" marker-end="url(#marker2182)"/>
      <path id="path2404" d="m150.51 33.192c4.472-6.7821 18.672-2.5106 24.14-8.0865 6.6743 8.5396 78.411-0.16471 87.778 8.6787"/>
      <path id="path2404-5" d="m31.97 63.981c8.4498-9.2944 138.76 3.1049 145.28-7.9143 8.9773 11.261 113.77-2.2211 124.6 8.5065"/>
    </g>
  </g>
</svg>
