<?xml version="1.0" encoding="UTF-8"?>
<svg id="svg8" width="95" height="32" version="1.1" viewBox="0 0 95 32" xmlns="http://www.w3.org/2000/svg">
  <g id="layer1" transform="translate(36)">
    <text id="text987" x="-5.4420195" y="19" fill="#005aa0" font-family="Arial" font-size="19.558px" font-weight="bold" letter-spacing="0px" stop-color="#000000" stroke-linecap="round" stroke-linejoin="bevel" stroke-width="0" word-spacing="0px" style="font-variant-caps:normal;font-variant-east-asian:normal;font-variant-ligatures:normal;font-variant-numeric:normal;font-variation-settings:normal;line-height:1.25" xml:space="preserve"><tspan id="tspan985" x="-5.4420195" y="19" fill="#005aa0" font-family="Arial" font-size="19.558px" font-weight="bold" stop-color="#000000" stroke-linecap="round" stroke-linejoin="bevel" stroke-width="0" style="font-variant-caps:normal;font-variant-east-asian:normal;font-variant-ligatures:normal;font-variant-numeric:normal;font-variation-settings:normal">FINAM</tspan></text>
    <g id="g8" fill="#ffa600">
      <text id="text991" transform="scale(1.0214 .97906)" x="-4.368248" y="28.60392" font-family="Arial" font-size="7.1692px" letter-spacing="0px" stop-color="#000000" stroke-linecap="round" stroke-linejoin="bevel" stroke-width="0" word-spacing="0px" style="font-variation-settings:normal;line-height:1.25" xml:space="preserve"><tspan id="tspan989" x="-4.368248" y="28.60392" fill="#ffa600" font-family="Arial" font-size="7.1692px" font-weight="bold" stop-color="#000000" stroke-linecap="round" stroke-linejoin="bevel" stroke-width="0">IS NOT A MODEL</tspan></text>
      <path id="rect1095-4-9-3-1-6-2-58-1-5-4-0" d="m-28.768 28 1.7214-5h11.047v5z" stop-color="#000000" style="font-variation-settings:normal"/>
      <path id="rect1095-4-9-8-7-5-7-65-5-7-8-8-1-6" d="m-24.625 16 1.7344-5h12.391v5z" stop-color="#000000" style="font-variation-settings:normal"/>
    </g>
    <g id="g14" fill="#005aa0">
      <path id="rect1095-8-5-97-1-3-4-5-0" d="m-29.237 11 1.4088-3.4649-1-2.5351h6.8281l-9 26h-1v-20z" stop-color="#000000" style="font-variation-settings:normal"/>
      <path id="rect1095-4-9-3-1-6-2-58-1-5-4" d="m-11.232 5-1.7214 5h-11.047v-5z" stop-color="#000000" style="font-variation-settings:normal"/>
      <path id="rect1095-4-9-8-7-5-7-65-5-7-8-8-1" d="m-15.375 17-1.7344 5h-12.391v-5z" stop-color="#000000" style="font-variation-settings:normal"/>
      <path id="rect1095-4-9-3-1-6-2-5-5-97-3-3" d="m-30 5 1 2.5351-1 2.4649h-3l-1-5z" stop-color="#000000" style="font-variation-settings:normal"/>
    </g>
    <path id="rect1095-8-5-97-1-3-7-6-1-0" d="m-10.763 22-1.4088 3.4649 1 2.5351h-6.8281l9-26h1v20z" fill="#ffa600" stop-color="#000000" style="font-variation-settings:normal"/>
    <path id="rect1095-4-9-3-1-6-2-5-5-9-7-6-2" d="m-10 28-1-2.5351 1-2.4649h3l1 5z" fill="#ffa600" stop-color="#000000" style="font-variation-settings:normal"/>
  </g>
</svg>
